<mxfile modified="2023-10-24T10:56:41.135Z" host="app.diagrams.net" agent="Mozilla/5.0 (Macintosh; Intel Mac OS X 10_15_7) AppleWebKit/605.1.15 (KHTML, like Gecko) Version/17.0 Safari/605.1.15" etag="jsU7VTUdcyesAgdi3hf5" version="22.0.6" type="github">
  <diagram id="f106602c-feb2-e66a-4537-3a34d633f6aa" name="Page-1">
    <mxGraphModel dx="708" dy="532" grid="1" gridSize="10" guides="1" tooltips="1" connect="1" arrows="1" fold="1" page="1" pageScale="1" pageWidth="1169" pageHeight="827" background="none" math="0" shadow="0">
      <root>
        <mxCell id="0" />
        <mxCell id="1" parent="0" />
        <mxCell id="14" value="&lt;b&gt;Google &lt;/b&gt;Cloud Platform" style="fillColor=#F6F6F6;strokeColor=none;shadow=0;gradientColor=none;fontSize=14;align=left;spacing=10;fontColor=#717171;9E9E9E;verticalAlign=top;spacingTop=-4;fontStyle=0;spacingLeft=40;html=1;" parent="1" vertex="1">
          <mxGeometry x="370" y="325" width="220" height="150" as="geometry" />
        </mxCell>
        <mxCell id="15" value="" style="shape=mxgraph.gcp2.google_cloud_platform;fillColor=#F6F6F6;strokeColor=none;shadow=0;gradientColor=none;" parent="14" vertex="1">
          <mxGeometry width="23" height="20" relative="1" as="geometry">
            <mxPoint x="20" y="10" as="offset" />
          </mxGeometry>
        </mxCell>
        <mxCell id="z9Gtfx7bnPoHvD95A8a2-27" value="" style="strokeColor=#dddddd;shadow=1;strokeWidth=1;rounded=1;absoluteArcSize=1;arcSize=2;" vertex="1" parent="14">
          <mxGeometry x="30" y="47.269999999999996" width="170.44" height="55.45" as="geometry" />
        </mxCell>
        <mxCell id="z9Gtfx7bnPoHvD95A8a2-28" value="&lt;font color=&quot;#000000&quot;&gt;Backend&lt;/font&gt;&lt;br&gt;Cloud Run" style="editableCssRules=.*;html=1;fontColor=#999999;shape=image;verticalLabelPosition=middle;labelBackgroundColor=#ffffff;verticalAlign=middle;labelPosition=right;align=left;spacingLeft=20;part=1;points=[];imageAspect=0;image=data:image/svg+xml,PHN2ZyB4bWxucz0iaHR0cDovL3d3dy53My5vcmcvMjAwMC9zdmciIHhtbG5zOnY9Imh0dHBzOi8vdmVjdGEuaW8vbmFubyIgd2lkdGg9IjM2NS40NjQ5OTY3NzA0MjQ5MyIgaGVpZ2h0PSIzNzkuMjIyOTk0NDYzNTc3OTUiIHZpZXdCb3g9IjAgMCA5Ni42OTU5OTkxNDU1MDc4MSAxMDAuMzM1OTk4NTM1MTU2MjUiPiYjeGE7PHN0eWxlIHR5cGU9InRleHQvY3NzIj4mI3hhOwkuc3Qwe2ZpbGw6IzQyODVmNDt9JiN4YTsJLnN0MXtmaWxsOiNhZWNiZmE7fSYjeGE7PC9zdHlsZT4mI3hhOwk8cGF0aCBjbGFzcz0ic3QwIiBkPSJNMjkuNzk0IDEwMC4zMzZMNDYuOTIgNTAuMTY4aDQ5Ljc3NnpNMCA5OS42NzFsMTIuOTc2LTQ5LjUwMkgyOS4yMkwxNi44OTcgOTIuMDU0eiIvPiYjeGE7CTxwYXRoIGNsYXNzPSJzdDEiIGQ9Ik0yOS43OTQgMEw0Ni45MiA1MC4xNjhoNDkuNzc2ek0wIC42NjZsMTIuOTc2IDQ5LjUwMkgyOS4yMkwxNi44OTcgOC4yODN6Ii8+JiN4YTs8L3N2Zz4=;" vertex="1" parent="z9Gtfx7bnPoHvD95A8a2-27">
          <mxGeometry width="30" height="30" relative="1" as="geometry">
            <mxPoint x="15" y="15" as="offset" />
          </mxGeometry>
        </mxCell>
        <mxCell id="2" value="Architecture: General &amp;gt; App Engine and Cloud Endpoints" style="fillColor=#4DA1F5;strokeColor=none;shadow=1;gradientColor=none;fontSize=14;align=left;spacingLeft=50;fontColor=#ffffff;html=1;" parent="1" vertex="1">
          <mxGeometry x="85" y="40" width="765" height="40" as="geometry" />
        </mxCell>
        <mxCell id="16" value="" style="rounded=1;absoluteArcSize=1;arcSize=2;html=1;strokeColor=none;gradientColor=none;shadow=0;dashed=0;strokeColor=none;fontSize=12;fontColor=#9E9E9E;align=left;verticalAlign=top;spacing=10;spacingTop=-4;fillColor=#E0E0E0;" parent="1" vertex="1">
          <mxGeometry x="180" y="740" width="670" height="30" as="geometry" />
        </mxCell>
        <mxCell id="20" value="" style="edgeStyle=orthogonalEdgeStyle;fontSize=12;html=1;endArrow=oval;endFill=1;rounded=0;strokeWidth=2;endSize=6;startSize=4;dashed=0;strokeColor=#4284F3;exitX=0;exitY=0.149;exitPerimeter=0;" parent="1" edge="1">
          <mxGeometry width="100" relative="1" as="geometry">
            <mxPoint x="400.09302325581393" y="382.8604651162791" as="sourcePoint" />
            <mxPoint x="390" y="383" as="targetPoint" />
          </mxGeometry>
        </mxCell>
        <mxCell id="21" value="" style="edgeStyle=orthogonalEdgeStyle;fontSize=12;html=1;endArrow=oval;endFill=1;rounded=0;strokeWidth=2;endSize=6;startSize=4;dashed=0;strokeColor=#4284F3;" parent="1" edge="1">
          <mxGeometry width="100" relative="1" as="geometry">
            <mxPoint x="400" y="400" as="sourcePoint" />
            <mxPoint x="389.9902912621359" y="399.9126213592233" as="targetPoint" />
          </mxGeometry>
        </mxCell>
        <mxCell id="22" value="" style="edgeStyle=orthogonalEdgeStyle;fontSize=12;html=1;endArrow=oval;endFill=1;rounded=0;strokeWidth=2;endSize=6;startSize=4;dashed=0;strokeColor=#4284F3;" parent="1" edge="1">
          <mxGeometry width="100" relative="1" as="geometry">
            <mxPoint x="400" y="416.04651162790697" as="sourcePoint" />
            <mxPoint x="389.9902912621359" y="415.91262135922335" as="targetPoint" />
          </mxGeometry>
        </mxCell>
        <mxCell id="3" value="" style="strokeColor=#dddddd;fillColor=#ffffff;shadow=1;strokeWidth=1;rounded=1;absoluteArcSize=1;arcSize=2;labelPosition=center;verticalLabelPosition=middle;align=center;verticalAlign=bottom;spacingLeft=0;fontColor=#999999;fontSize=12;whiteSpace=wrap;spacingBottom=2;html=1;" parent="1" vertex="1">
          <mxGeometry x="70" y="332.5" width="160" height="135" as="geometry" />
        </mxCell>
        <mxCell id="z9Gtfx7bnPoHvD95A8a2-35" value="" style="rounded=0;orthogonalLoop=1;jettySize=auto;html=1;" edge="1" parent="1" source="z9Gtfx7bnPoHvD95A8a2-32" target="z9Gtfx7bnPoHvD95A8a2-34">
          <mxGeometry relative="1" as="geometry" />
        </mxCell>
        <mxCell id="z9Gtfx7bnPoHvD95A8a2-32" value="iOS Client" style="rounded=1;whiteSpace=wrap;html=1;arcSize=21;" vertex="1" parent="1">
          <mxGeometry x="80" y="348.5" width="50" height="105" as="geometry" />
        </mxCell>
        <mxCell id="z9Gtfx7bnPoHvD95A8a2-36" style="edgeStyle=orthogonalEdgeStyle;rounded=0;orthogonalLoop=1;jettySize=auto;html=1;" edge="1" parent="1" source="z9Gtfx7bnPoHvD95A8a2-34" target="z9Gtfx7bnPoHvD95A8a2-32">
          <mxGeometry relative="1" as="geometry" />
        </mxCell>
        <mxCell id="z9Gtfx7bnPoHvD95A8a2-34" value="Swift gRPC Library" style="rounded=1;whiteSpace=wrap;html=1;" vertex="1" parent="1">
          <mxGeometry x="170" y="348.5" width="50" height="105" as="geometry" />
        </mxCell>
        <mxCell id="z9Gtfx7bnPoHvD95A8a2-37" value="gRPC&lt;br&gt;Request/Response" style="text;html=1;align=center;verticalAlign=middle;resizable=0;points=[];autosize=1;strokeColor=none;fillColor=none;" vertex="1" parent="1">
          <mxGeometry x="240" y="380" width="130" height="40" as="geometry" />
        </mxCell>
        <mxCell id="18" value="" style="fontSize=12;html=1;endArrow=blockThin;endFill=1;rounded=0;strokeWidth=2;endSize=4;startSize=4;dashed=0;strokeColor=#4284F3;startArrow=blockThin;startFill=1;exitX=1;exitY=0.5;exitDx=0;exitDy=0;" parent="1" edge="1" source="z9Gtfx7bnPoHvD95A8a2-34">
          <mxGeometry width="100" relative="1" as="geometry">
            <mxPoint x="280" y="400" as="sourcePoint" />
            <mxPoint x="390" y="400" as="targetPoint" />
          </mxGeometry>
        </mxCell>
        <mxCell id="z9Gtfx7bnPoHvD95A8a2-44" value="iPhone" style="text;html=1;align=center;verticalAlign=middle;resizable=0;points=[];autosize=1;strokeColor=none;fillColor=none;" vertex="1" parent="1">
          <mxGeometry x="120" y="310" width="60" height="30" as="geometry" />
        </mxCell>
      </root>
    </mxGraphModel>
  </diagram>
</mxfile>
